# xmcd
#
# Track frame offsets: 
#        150
#        18819
#        37172
#        54845
#        73848
#        87997
#        105000
#        122260
#        140383
#        153946
#        166873
#        191736
#        209211
#        220250
#        238449
#        265663
#
# Disc length: 4719 seconds
#
# Revision: 0
# Processed by: cddbd v1.5.2PL0 Copyright (c) Steve Scherf et al.
# Submitted via: ExactAudioCopyFreeDBPlugin 1.0
#
DISCID=dc126d10
DTITLE=Hello Seahorse! - Bestia (Edición Especial)
DYEAR=2009
DGENRE=Indie
TTITLE0=Bestia
TTITLE1=Criminal
TTITLE2=Miércoles
TTITLE3=Oso Polar
TTITLE4=El Segundo
TTITLE5=Siberia
TTITLE6=Después
TTITLE7=El Recuerdo
TTITLE8=Del Cielo se Caen
TTITLE9=Universo
TTITLE10=Bestia (Toy Selecta Remix)
TTITLE11=Miércoles (Clinic Remix)
TTITLE12=Bestia (Julieta Venegas)
TTITLE13=Después (Money Mark Remix)
TTITLE14=Bestia (Acustica)
TTITLE15=Bestia (Video)
EXTD=
EXTT0=
EXTT1=
EXTT2=
EXTT3=
EXTT4=
EXTT5=
EXTT6=
EXTT7=
EXTT8=
EXTT9=
EXTT10=
EXTT11=
EXTT12=
EXTT13=
EXTT14=
EXTT15=
PLAYORDER=
